# xmcd
#
# Track frame offsets:
#	150
#	14626
#	29224
#	43379
#	56867
#	72084
#	88907
#	104025
#	118397
#	133437
#
# Disc length: 1984 seconds
#
# Revision: 0
# Processed by: cddbd v1.5.2PL0 Copyright (c) Steve Scherf et al.
# Submitted via: EasyCDDAExtractor 16.0.6.1
#
DISCID=ac07be0a
DTITLE=Συλλογικός δίσκος - Ιστορία ρεμπέτικου και λαϊκού 02-4
DYEAR=2007
DGENRE=Ποικίλη
TTITLE0=Περπινιάδης Στελλάκης - Εγώ θέλω πριγκιπέσσα [Παν. Τούντας]
TTITLE1=Δελλιάς Ανέστης - Το χαρέμι στο χαμάμ [Ανέστης Δελλιάς]
TTITLE2=Αμπατζή Ρίτα - Δυό μάγκες μέσ' στη φυλακή [Κώστας Τζόβενος]
TTITLE3=Κάβουρας Γιώργος - Ο σερέτης [Ιάκωβος Μοντανάρης]
TTITLE4=Δελλιάς Ανέστης - Ο πόνος του πρεζάκια [Ανέστης Δελλιάς]
TTITLE5=Καλυβόπουλος Αντώνης - Παραπονιούνται οι μάγκες μας [Δημ. Κυριαζόπουλο
TTITLE5=ς]
TTITLE6=Περδικόπουλος Δημήτρης - Στου Λινάρδου την ταβέρνα [Παν. Τούντας]
TTITLE7=Βαμβακάρης Μάρκος-Παγιουμτζής Στράτος - Καραβοτσακίσματα [Μ. Βαμβακάρη
TTITLE7=ς]
TTITLE8=Αμπατζή Ρίτα - Γκαρσόνα [Παν. Τούντας]
TTITLE9=Αμπατζή Ρίτα - Τράβα σπάγγο [Δημήτρης Σέμσης]
EXTD=
EXTT0=
EXTT1=
EXTT2=
EXTT3=
EXTT4=
EXTT5=
EXTT6=
EXTT7=
EXTT8=
EXTT9=
PLAYORDER=
